<mxfile host="app.diagrams.net" modified="2024-05-17T08:50:35.135Z" agent="Mozilla/5.0 (Macintosh; Intel Mac OS X 10_15_7) AppleWebKit/537.36 (KHTML, like Gecko) Chrome/124.0.0.0 Safari/537.36" etag="TWOXR6noTxDk-eJQsbrn" version="24.4.2" type="google">
  <diagram name="Page-1" id="bSxDizArWJc6PZamr7eB">
    <mxGraphModel grid="1" page="1" gridSize="10" guides="1" tooltips="1" connect="1" arrows="1" fold="1" pageScale="1" pageWidth="850" pageHeight="1100" math="0" shadow="0">
      <root>
        <mxCell id="0" />
        <mxCell id="1" parent="0" />
        <mxCell id="98YgMs9rK_HKfB4fXoP2-1" value="&lt;font style=&quot;font-size: 24px;&quot;&gt;team&lt;/font&gt;" style="rounded=0;whiteSpace=wrap;html=1;" vertex="1" parent="1">
          <mxGeometry x="100" y="-630" width="120" height="60" as="geometry" />
        </mxCell>
        <mxCell id="98YgMs9rK_HKfB4fXoP2-2" value="&lt;font style=&quot;font-size: 24px;&quot;&gt;game&lt;/font&gt;" style="rounded=0;whiteSpace=wrap;html=1;" vertex="1" parent="1">
          <mxGeometry x="100" y="-180" width="120" height="60" as="geometry" />
        </mxCell>
        <mxCell id="98YgMs9rK_HKfB4fXoP2-3" value="&lt;font style=&quot;font-size: 24px;&quot;&gt;season&lt;/font&gt;" style="rounded=0;whiteSpace=wrap;html=1;" vertex="1" parent="1">
          <mxGeometry x="100" y="280" width="120" height="60" as="geometry" />
        </mxCell>
        <mxCell id="98YgMs9rK_HKfB4fXoP2-11" style="edgeStyle=orthogonalEdgeStyle;rounded=0;orthogonalLoop=1;jettySize=auto;html=1;exitX=0.5;exitY=0;exitDx=0;exitDy=0;fontSize=18;" edge="1" parent="1" source="98YgMs9rK_HKfB4fXoP2-4">
          <mxGeometry relative="1" as="geometry">
            <mxPoint x="660" y="-140" as="targetPoint" />
          </mxGeometry>
        </mxCell>
        <mxCell id="98YgMs9rK_HKfB4fXoP2-4" value="&lt;font style=&quot;font-size: 24px;&quot;&gt;gameRecord&lt;/font&gt;" style="rounded=0;whiteSpace=wrap;html=1;" vertex="1" parent="1">
          <mxGeometry x="580" y="-160" width="160" height="60" as="geometry" />
        </mxCell>
        <mxCell id="98YgMs9rK_HKfB4fXoP2-5" value="&lt;font style=&quot;font-size: 24px;&quot;&gt;player&lt;/font&gt;" style="rounded=0;whiteSpace=wrap;html=1;" vertex="1" parent="1">
          <mxGeometry x="590" y="-620" width="120" height="50" as="geometry" />
        </mxCell>
        <mxCell id="98YgMs9rK_HKfB4fXoP2-6" value="&lt;font style=&quot;font-size: 24px;&quot;&gt;belong&lt;/font&gt;" style="rhombus;whiteSpace=wrap;html=1;" vertex="1" parent="1">
          <mxGeometry x="350" y="-655" width="120" height="110" as="geometry" />
        </mxCell>
        <mxCell id="98YgMs9rK_HKfB4fXoP2-7" value="&lt;font style=&quot;font-size: 24px;&quot;&gt;record&lt;/font&gt;" style="rhombus;whiteSpace=wrap;html=1;" vertex="1" parent="1">
          <mxGeometry x="350" y="-185" width="120" height="110" as="geometry" />
        </mxCell>
        <mxCell id="98YgMs9rK_HKfB4fXoP2-8" value="&lt;font style=&quot;font-size: 24px;&quot;&gt;in&lt;/font&gt;" style="rhombus;whiteSpace=wrap;html=1;" vertex="1" parent="1">
          <mxGeometry x="100" y="20" width="120" height="110" as="geometry" />
        </mxCell>
        <mxCell id="98YgMs9rK_HKfB4fXoP2-9" value="&lt;span style=&quot;font-size: 24px;&quot;&gt;attend&lt;/span&gt;" style="rhombus;whiteSpace=wrap;html=1;" vertex="1" parent="1">
          <mxGeometry x="110" y="-440" width="120" height="110" as="geometry" />
        </mxCell>
        <mxCell id="98YgMs9rK_HKfB4fXoP2-10" value="&lt;font style=&quot;font-size: 24px;&quot;&gt;has&lt;/font&gt;" style="rhombus;whiteSpace=wrap;html=1;" vertex="1" parent="1">
          <mxGeometry x="590" y="-440" width="120" height="110" as="geometry" />
        </mxCell>
        <mxCell id="98YgMs9rK_HKfB4fXoP2-19" value="PID" style="ellipse;whiteSpace=wrap;html=1;align=center;fontStyle=4;fontSize=18;" vertex="1" parent="1">
          <mxGeometry x="600" y="-770" width="130" height="50" as="geometry" />
        </mxCell>
        <mxCell id="98YgMs9rK_HKfB4fXoP2-21" value="" style="endArrow=none;html=1;rounded=0;entryX=0.5;entryY=0;entryDx=0;entryDy=0;exitX=0.5;exitY=1;exitDx=0;exitDy=0;fontSize=18;" edge="1" parent="1" source="98YgMs9rK_HKfB4fXoP2-19" target="98YgMs9rK_HKfB4fXoP2-5">
          <mxGeometry relative="1" as="geometry">
            <mxPoint x="310" y="-420" as="sourcePoint" />
            <mxPoint x="570" y="-520" as="targetPoint" />
          </mxGeometry>
        </mxCell>
        <mxCell id="98YgMs9rK_HKfB4fXoP2-22" value="SID" style="ellipse;whiteSpace=wrap;html=1;align=center;fontStyle=4;fontSize=18;" vertex="1" parent="1">
          <mxGeometry x="330" y="160" width="130" height="50" as="geometry" />
        </mxCell>
        <mxCell id="98YgMs9rK_HKfB4fXoP2-23" value="" style="endArrow=none;html=1;rounded=0;entryX=1;entryY=0.25;entryDx=0;entryDy=0;exitX=0.5;exitY=1;exitDx=0;exitDy=0;fontSize=18;" edge="1" parent="1" source="98YgMs9rK_HKfB4fXoP2-22" target="98YgMs9rK_HKfB4fXoP2-3">
          <mxGeometry relative="1" as="geometry">
            <mxPoint x="40" y="510" as="sourcePoint" />
            <mxPoint x="380" y="310" as="targetPoint" />
          </mxGeometry>
        </mxCell>
        <mxCell id="98YgMs9rK_HKfB4fXoP2-24" value="GID" style="ellipse;whiteSpace=wrap;html=1;align=center;fontStyle=4;fontSize=18;" vertex="1" parent="1">
          <mxGeometry x="-120" y="-280" width="130" height="50" as="geometry" />
        </mxCell>
        <mxCell id="98YgMs9rK_HKfB4fXoP2-25" value="" style="endArrow=none;html=1;rounded=0;entryX=0;entryY=0.25;entryDx=0;entryDy=0;exitX=0.5;exitY=1;exitDx=0;exitDy=0;fontSize=18;" edge="1" parent="1" source="98YgMs9rK_HKfB4fXoP2-24" target="98YgMs9rK_HKfB4fXoP2-2">
          <mxGeometry relative="1" as="geometry">
            <mxPoint x="-410" y="70" as="sourcePoint" />
            <mxPoint x="-80" y="-125" as="targetPoint" />
          </mxGeometry>
        </mxCell>
        <mxCell id="98YgMs9rK_HKfB4fXoP2-26" value="TID" style="ellipse;whiteSpace=wrap;html=1;align=center;fontStyle=4;fontSize=18;" vertex="1" parent="1">
          <mxGeometry x="70" y="-770" width="130" height="50" as="geometry" />
        </mxCell>
        <mxCell id="98YgMs9rK_HKfB4fXoP2-27" value="" style="endArrow=none;html=1;rounded=0;entryX=0.402;entryY=0.031;entryDx=0;entryDy=0;exitX=0.5;exitY=1;exitDx=0;exitDy=0;entryPerimeter=0;fontSize=18;" edge="1" parent="1" source="98YgMs9rK_HKfB4fXoP2-26" target="98YgMs9rK_HKfB4fXoP2-1">
          <mxGeometry relative="1" as="geometry">
            <mxPoint x="340" y="-390" as="sourcePoint" />
            <mxPoint x="680" y="-590" as="targetPoint" />
          </mxGeometry>
        </mxCell>
        <mxCell id="98YgMs9rK_HKfB4fXoP2-28" value="RID" style="ellipse;whiteSpace=wrap;html=1;align=center;fontStyle=4;fontSize=18;" vertex="1" parent="1">
          <mxGeometry x="800" y="-260" width="130" height="50" as="geometry" />
        </mxCell>
        <mxCell id="98YgMs9rK_HKfB4fXoP2-29" value="" style="endArrow=none;html=1;rounded=0;entryX=0.832;entryY=-0.039;entryDx=0;entryDy=0;exitX=0.5;exitY=1;exitDx=0;exitDy=0;entryPerimeter=0;fontSize=18;" edge="1" parent="1" source="98YgMs9rK_HKfB4fXoP2-28" target="98YgMs9rK_HKfB4fXoP2-4">
          <mxGeometry relative="1" as="geometry">
            <mxPoint x="380" y="60" as="sourcePoint" />
            <mxPoint x="720" y="-140" as="targetPoint" />
          </mxGeometry>
        </mxCell>
        <mxCell id="98YgMs9rK_HKfB4fXoP2-31" value="Name" style="ellipse;whiteSpace=wrap;html=1;align=center;fontSize=18;" vertex="1" parent="1">
          <mxGeometry x="430" y="-770" width="150" height="60" as="geometry" />
        </mxCell>
        <mxCell id="98YgMs9rK_HKfB4fXoP2-32" value="" style="endArrow=none;html=1;rounded=0;entryX=0;entryY=0;entryDx=0;entryDy=0;exitX=0.592;exitY=0.969;exitDx=0;exitDy=0;exitPerimeter=0;fontSize=18;" edge="1" parent="1" source="98YgMs9rK_HKfB4fXoP2-31" target="98YgMs9rK_HKfB4fXoP2-5">
          <mxGeometry relative="1" as="geometry">
            <mxPoint x="310" y="-590" as="sourcePoint" />
            <mxPoint x="470" y="-590" as="targetPoint" />
          </mxGeometry>
        </mxCell>
        <mxCell id="98YgMs9rK_HKfB4fXoP2-33" value="FName" style="ellipse;whiteSpace=wrap;html=1;align=center;fontSize=18;" vertex="1" parent="1">
          <mxGeometry x="520" y="-880" width="150" height="60" as="geometry" />
        </mxCell>
        <mxCell id="98YgMs9rK_HKfB4fXoP2-34" value="LName" style="ellipse;whiteSpace=wrap;html=1;align=center;fontSize=18;" vertex="1" parent="1">
          <mxGeometry x="300" y="-880" width="150" height="60" as="geometry" />
        </mxCell>
        <mxCell id="98YgMs9rK_HKfB4fXoP2-35" value="" style="endArrow=none;html=1;rounded=0;entryX=1;entryY=0;entryDx=0;entryDy=0;exitX=0.5;exitY=1;exitDx=0;exitDy=0;fontSize=18;" edge="1" parent="1" source="98YgMs9rK_HKfB4fXoP2-33" target="98YgMs9rK_HKfB4fXoP2-31">
          <mxGeometry relative="1" as="geometry">
            <mxPoint x="529" y="-702" as="sourcePoint" />
            <mxPoint x="600" y="-610" as="targetPoint" />
            <Array as="points" />
          </mxGeometry>
        </mxCell>
        <mxCell id="98YgMs9rK_HKfB4fXoP2-36" value="" style="endArrow=none;html=1;rounded=0;entryX=0;entryY=0;entryDx=0;entryDy=0;exitX=0.559;exitY=0.979;exitDx=0;exitDy=0;exitPerimeter=0;fontSize=18;" edge="1" parent="1" source="98YgMs9rK_HKfB4fXoP2-34" target="98YgMs9rK_HKfB4fXoP2-31">
          <mxGeometry relative="1" as="geometry">
            <mxPoint x="399" y="-820" as="sourcePoint" />
            <mxPoint x="470" y="-728" as="targetPoint" />
          </mxGeometry>
        </mxCell>
        <mxCell id="98YgMs9rK_HKfB4fXoP2-37" value="" style="endArrow=none;html=1;rounded=0;fontSize=18;" edge="1" parent="1">
          <mxGeometry relative="1" as="geometry">
            <mxPoint x="870" y="-710" as="sourcePoint" />
            <mxPoint x="710" y="-620" as="targetPoint" />
          </mxGeometry>
        </mxCell>
        <mxCell id="98YgMs9rK_HKfB4fXoP2-38" value="BDate" style="ellipse;whiteSpace=wrap;html=1;align=center;fontSize=18;" vertex="1" parent="1">
          <mxGeometry x="820" y="-770" width="130" height="60" as="geometry" />
        </mxCell>
        <mxCell id="98YgMs9rK_HKfB4fXoP2-39" value="" style="endArrow=none;html=1;rounded=0;fontSize=18;" edge="1" parent="1">
          <mxGeometry relative="1" as="geometry">
            <mxPoint x="710" y="-600.91" as="sourcePoint" />
            <mxPoint x="870" y="-600.91" as="targetPoint" />
          </mxGeometry>
        </mxCell>
        <mxCell id="98YgMs9rK_HKfB4fXoP2-40" value="Fitness" style="ellipse;whiteSpace=wrap;html=1;align=center;fontSize=18;" vertex="1" parent="1">
          <mxGeometry x="870" y="-640" width="160" height="80" as="geometry" />
        </mxCell>
        <mxCell id="98YgMs9rK_HKfB4fXoP2-41" value="" style="endArrow=none;html=1;rounded=0;fontSize=18;" edge="1" parent="1">
          <mxGeometry relative="1" as="geometry">
            <mxPoint x="1030" y="-610" as="sourcePoint" />
            <mxPoint x="1130" y="-670" as="targetPoint" />
          </mxGeometry>
        </mxCell>
        <mxCell id="98YgMs9rK_HKfB4fXoP2-43" value="Height" style="ellipse;whiteSpace=wrap;html=1;align=center;fontSize=18;" vertex="1" parent="1">
          <mxGeometry x="1120" y="-710" width="135" height="65" as="geometry" />
        </mxCell>
        <mxCell id="98YgMs9rK_HKfB4fXoP2-44" value="Weight" style="ellipse;whiteSpace=wrap;html=1;align=center;fontSize=18;" vertex="1" parent="1">
          <mxGeometry x="1120" y="-590" width="130" height="60" as="geometry" />
        </mxCell>
        <mxCell id="98YgMs9rK_HKfB4fXoP2-45" value="" style="endArrow=none;html=1;rounded=0;entryX=0;entryY=0.5;entryDx=0;entryDy=0;exitX=1;exitY=1;exitDx=0;exitDy=0;fontSize=18;" edge="1" parent="1" source="98YgMs9rK_HKfB4fXoP2-40" target="98YgMs9rK_HKfB4fXoP2-44">
          <mxGeometry relative="1" as="geometry">
            <mxPoint x="1040" y="-600" as="sourcePoint" />
            <mxPoint x="1140" y="-660" as="targetPoint" />
            <Array as="points" />
          </mxGeometry>
        </mxCell>
        <mxCell id="98YgMs9rK_HKfB4fXoP2-47" value="" style="endArrow=none;html=1;rounded=0;exitX=1;exitY=1;exitDx=0;exitDy=0;fontSize=18;" edge="1" parent="1" source="98YgMs9rK_HKfB4fXoP2-5" target="98YgMs9rK_HKfB4fXoP2-48">
          <mxGeometry relative="1" as="geometry">
            <mxPoint x="720" y="-570" as="sourcePoint" />
            <mxPoint x="890" y="-460" as="targetPoint" />
          </mxGeometry>
        </mxCell>
        <mxCell id="98YgMs9rK_HKfB4fXoP2-48" value="Position" style="ellipse;whiteSpace=wrap;html=1;align=center;fontSize=18;" vertex="1" parent="1">
          <mxGeometry x="840" y="-510" width="170" height="70" as="geometry" />
        </mxCell>
        <mxCell id="98YgMs9rK_HKfB4fXoP2-49" value="" style="endArrow=none;html=1;rounded=0;exitX=0.75;exitY=1;exitDx=0;exitDy=0;fontSize=18;" edge="1" parent="1" source="98YgMs9rK_HKfB4fXoP2-5" target="98YgMs9rK_HKfB4fXoP2-50">
          <mxGeometry relative="1" as="geometry">
            <mxPoint x="670" y="-450" as="sourcePoint" />
            <mxPoint x="910" y="-380" as="targetPoint" />
          </mxGeometry>
        </mxCell>
        <mxCell id="98YgMs9rK_HKfB4fXoP2-50" value="Country" style="ellipse;whiteSpace=wrap;html=1;align=center;fontSize=18;" vertex="1" parent="1">
          <mxGeometry x="860" y="-400" width="100" height="40" as="geometry" />
        </mxCell>
        <mxCell id="98YgMs9rK_HKfB4fXoP2-52" value="" style="endArrow=none;html=1;rounded=0;exitX=0;exitY=0.25;exitDx=0;exitDy=0;fontSize=18;" edge="1" parent="1" source="98YgMs9rK_HKfB4fXoP2-1" target="98YgMs9rK_HKfB4fXoP2-53">
          <mxGeometry relative="1" as="geometry">
            <mxPoint x="-60" y="-610" as="sourcePoint" />
            <mxPoint x="100" y="-610" as="targetPoint" />
          </mxGeometry>
        </mxCell>
        <mxCell id="98YgMs9rK_HKfB4fXoP2-53" value="City" style="ellipse;whiteSpace=wrap;html=1;align=center;fontSize=18;" vertex="1" parent="1">
          <mxGeometry x="-130" y="-770" width="150" height="70" as="geometry" />
        </mxCell>
        <mxCell id="98YgMs9rK_HKfB4fXoP2-54" value="" style="endArrow=none;html=1;rounded=0;exitX=1;exitY=0.5;exitDx=0;exitDy=0;fontSize=18;" edge="1" parent="1" source="98YgMs9rK_HKfB4fXoP2-55">
          <mxGeometry relative="1" as="geometry">
            <mxPoint x="-40" y="-570" as="sourcePoint" />
            <mxPoint x="100" y="-592" as="targetPoint" />
          </mxGeometry>
        </mxCell>
        <mxCell id="98YgMs9rK_HKfB4fXoP2-55" value="CoachName" style="ellipse;whiteSpace=wrap;html=1;align=center;fontSize=18;" vertex="1" parent="1">
          <mxGeometry x="-190" y="-680" width="130" height="60" as="geometry" />
        </mxCell>
        <mxCell id="98YgMs9rK_HKfB4fXoP2-56" value="" style="endArrow=none;html=1;rounded=0;entryX=0;entryY=1;entryDx=0;entryDy=0;exitX=1;exitY=0;exitDx=0;exitDy=0;fontSize=18;" edge="1" parent="1" source="98YgMs9rK_HKfB4fXoP2-57" target="98YgMs9rK_HKfB4fXoP2-1">
          <mxGeometry relative="1" as="geometry">
            <mxPoint x="-220" y="-480" as="sourcePoint" />
            <mxPoint x="330" y="-540" as="targetPoint" />
            <Array as="points">
              <mxPoint x="-100" y="-520" />
            </Array>
          </mxGeometry>
        </mxCell>
        <mxCell id="98YgMs9rK_HKfB4fXoP2-57" value="yearFounded" style="ellipse;whiteSpace=wrap;html=1;align=center;fontSize=18;" vertex="1" parent="1">
          <mxGeometry x="-340" y="-490" width="130" height="60" as="geometry" />
        </mxCell>
        <mxCell id="98YgMs9rK_HKfB4fXoP2-59" value="" style="endArrow=none;html=1;rounded=0;entryX=0;entryY=0.5;entryDx=0;entryDy=0;fontSize=18;" edge="1" parent="1" target="98YgMs9rK_HKfB4fXoP2-9">
          <mxGeometry relative="1" as="geometry">
            <mxPoint x="-60" y="-360" as="sourcePoint" />
            <mxPoint x="330" y="-230" as="targetPoint" />
          </mxGeometry>
        </mxCell>
        <mxCell id="98YgMs9rK_HKfB4fXoP2-60" value="Score" style="ellipse;whiteSpace=wrap;html=1;align=center;fontSize=18;" vertex="1" parent="1">
          <mxGeometry x="-150" y="-380" width="100" height="40" as="geometry" />
        </mxCell>
        <mxCell id="98YgMs9rK_HKfB4fXoP2-62" value="" style="endArrow=none;html=1;rounded=0;fontSize=18;" edge="1" parent="1">
          <mxGeometry relative="1" as="geometry">
            <mxPoint x="-60" y="-150.39999999999998" as="sourcePoint" />
            <mxPoint x="100" y="-150.39999999999998" as="targetPoint" />
          </mxGeometry>
        </mxCell>
        <mxCell id="98YgMs9rK_HKfB4fXoP2-63" value="Date" style="ellipse;whiteSpace=wrap;html=1;align=center;fontSize=18;" vertex="1" parent="1">
          <mxGeometry x="-150" y="-160" width="100" height="40" as="geometry" />
        </mxCell>
        <mxCell id="98YgMs9rK_HKfB4fXoP2-64" value="" style="endArrow=none;html=1;rounded=0;entryX=0;entryY=1;entryDx=0;entryDy=0;fontSize=18;" edge="1" parent="1" target="98YgMs9rK_HKfB4fXoP2-2">
          <mxGeometry relative="1" as="geometry">
            <mxPoint x="-10" y="-80" as="sourcePoint" />
            <mxPoint x="120" y="-80" as="targetPoint" />
          </mxGeometry>
        </mxCell>
        <mxCell id="98YgMs9rK_HKfB4fXoP2-65" value="Place" style="ellipse;whiteSpace=wrap;html=1;align=center;fontSize=18;" vertex="1" parent="1">
          <mxGeometry x="-105" y="-100" width="100" height="40" as="geometry" />
        </mxCell>
        <mxCell id="98YgMs9rK_HKfB4fXoP2-68" value="" style="endArrow=none;html=1;rounded=0;entryX=0;entryY=0;entryDx=0;entryDy=0;fontSize=18;" edge="1" parent="1" target="98YgMs9rK_HKfB4fXoP2-9">
          <mxGeometry relative="1" as="geometry">
            <mxPoint x="-60" y="-430" as="sourcePoint" />
            <mxPoint x="270" y="-400" as="targetPoint" />
            <Array as="points" />
          </mxGeometry>
        </mxCell>
        <mxCell id="98YgMs9rK_HKfB4fXoP2-69" value="IsHomeTeam" style="ellipse;whiteSpace=wrap;html=1;align=center;fontSize=18;" vertex="1" parent="1">
          <mxGeometry x="-180" y="-460" width="120" height="60" as="geometry" />
        </mxCell>
        <mxCell id="98YgMs9rK_HKfB4fXoP2-72" value="" style="endArrow=none;html=1;rounded=0;fontSize=18;" edge="1" parent="1">
          <mxGeometry relative="1" as="geometry">
            <mxPoint x="220" y="320" as="sourcePoint" />
            <mxPoint x="380" y="320" as="targetPoint" />
          </mxGeometry>
        </mxCell>
        <mxCell id="98YgMs9rK_HKfB4fXoP2-73" value="year" style="ellipse;whiteSpace=wrap;html=1;align=center;fontSize=18;" vertex="1" parent="1">
          <mxGeometry x="375" y="300" width="100" height="40" as="geometry" />
        </mxCell>
        <mxCell id="98YgMs9rK_HKfB4fXoP2-78" value="" style="shape=link;html=1;rounded=0;entryX=0.5;entryY=1;entryDx=0;entryDy=0;exitX=0.5;exitY=1;exitDx=0;exitDy=0;fontSize=18;" edge="1" parent="1" source="98YgMs9rK_HKfB4fXoP2-8" target="98YgMs9rK_HKfB4fXoP2-8">
          <mxGeometry relative="1" as="geometry">
            <mxPoint x="300" y="150" as="sourcePoint" />
            <mxPoint x="460" y="150" as="targetPoint" />
            <Array as="points">
              <mxPoint x="170" y="280" />
            </Array>
          </mxGeometry>
        </mxCell>
        <mxCell id="98YgMs9rK_HKfB4fXoP2-80" value="" style="shape=link;html=1;rounded=0;exitX=0.5;exitY=0;exitDx=0;exitDy=0;fontSize=18;" edge="1" parent="1" source="98YgMs9rK_HKfB4fXoP2-3">
          <mxGeometry relative="1" as="geometry">
            <mxPoint x="300" y="150" as="sourcePoint" />
            <mxPoint x="160" y="130" as="targetPoint" />
          </mxGeometry>
        </mxCell>
        <mxCell id="98YgMs9rK_HKfB4fXoP2-81" value="1" style="resizable=0;html=1;whiteSpace=wrap;align=right;verticalAlign=bottom;fontSize=18;" connectable="0" vertex="1" parent="98YgMs9rK_HKfB4fXoP2-80">
          <mxGeometry x="1" relative="1" as="geometry">
            <mxPoint x="20" y="10" as="offset" />
          </mxGeometry>
        </mxCell>
        <mxCell id="98YgMs9rK_HKfB4fXoP2-82" value="" style="shape=link;html=1;rounded=0;exitX=0.5;exitY=1;exitDx=0;exitDy=0;entryX=0.5;entryY=0;entryDx=0;entryDy=0;fontSize=18;" edge="1" parent="1" source="98YgMs9rK_HKfB4fXoP2-2" target="98YgMs9rK_HKfB4fXoP2-8">
          <mxGeometry relative="1" as="geometry">
            <mxPoint x="170" y="-10" as="sourcePoint" />
            <mxPoint x="330" y="-10" as="targetPoint" />
          </mxGeometry>
        </mxCell>
        <mxCell id="98YgMs9rK_HKfB4fXoP2-83" value="N" style="resizable=0;html=1;whiteSpace=wrap;align=right;verticalAlign=bottom;fontSize=18;" connectable="0" vertex="1" parent="98YgMs9rK_HKfB4fXoP2-82">
          <mxGeometry x="1" relative="1" as="geometry">
            <mxPoint x="20" as="offset" />
          </mxGeometry>
        </mxCell>
        <mxCell id="98YgMs9rK_HKfB4fXoP2-84" value="" style="endArrow=none;html=1;rounded=0;fontSize=18;" edge="1" parent="1" source="98YgMs9rK_HKfB4fXoP2-4">
          <mxGeometry relative="1" as="geometry">
            <mxPoint x="990" y="-40.620000000000005" as="sourcePoint" />
            <mxPoint x="1150" y="-40.620000000000005" as="targetPoint" />
          </mxGeometry>
        </mxCell>
        <mxCell id="98YgMs9rK_HKfB4fXoP2-85" value="Hit" style="ellipse;whiteSpace=wrap;html=1;align=center;fontSize=18;" vertex="1" parent="1">
          <mxGeometry x="1140" y="-60" width="100" height="40" as="geometry" />
        </mxCell>
        <mxCell id="98YgMs9rK_HKfB4fXoP2-86" value="" style="endArrow=none;html=1;rounded=0;exitX=0.961;exitY=1.04;exitDx=0;exitDy=0;exitPerimeter=0;fontSize=18;" edge="1" parent="1" source="98YgMs9rK_HKfB4fXoP2-4" target="98YgMs9rK_HKfB4fXoP2-87">
          <mxGeometry relative="1" as="geometry">
            <mxPoint x="992.7101859699401" y="131.07035841183688" as="sourcePoint" />
            <mxPoint x="1130" y="30" as="targetPoint" />
          </mxGeometry>
        </mxCell>
        <mxCell id="98YgMs9rK_HKfB4fXoP2-87" value="Steal" style="ellipse;whiteSpace=wrap;html=1;align=center;fontSize=18;" vertex="1" parent="1">
          <mxGeometry x="1080" y="10" width="100" height="40" as="geometry" />
        </mxCell>
        <mxCell id="98YgMs9rK_HKfB4fXoP2-88" value="" style="endArrow=none;html=1;rounded=0;exitX=0.994;exitY=0.353;exitDx=0;exitDy=0;exitPerimeter=0;fontSize=18;" edge="1" parent="1" source="98YgMs9rK_HKfB4fXoP2-4" target="98YgMs9rK_HKfB4fXoP2-89">
          <mxGeometry relative="1" as="geometry">
            <mxPoint x="1000" y="-150" as="sourcePoint" />
            <mxPoint x="1160" y="-150" as="targetPoint" />
          </mxGeometry>
        </mxCell>
        <mxCell id="98YgMs9rK_HKfB4fXoP2-89" value="Assist" style="ellipse;whiteSpace=wrap;html=1;align=center;fontSize=18;" vertex="1" parent="1">
          <mxGeometry x="1100" y="-210" width="100" height="40" as="geometry" />
        </mxCell>
        <mxCell id="98YgMs9rK_HKfB4fXoP2-91" value="" style="endArrow=none;html=1;rounded=0;fontSize=18;" edge="1" parent="1" source="98YgMs9rK_HKfB4fXoP2-4" target="98YgMs9rK_HKfB4fXoP2-92">
          <mxGeometry relative="1" as="geometry">
            <mxPoint x="690" y="10" as="sourcePoint" />
            <mxPoint x="810" y="60" as="targetPoint" />
          </mxGeometry>
        </mxCell>
        <mxCell id="98YgMs9rK_HKfB4fXoP2-92" value="Score" style="ellipse;whiteSpace=wrap;html=1;align=center;fontSize=18;" vertex="1" parent="1">
          <mxGeometry x="760.0000000000005" y="40" width="100" height="40" as="geometry" />
        </mxCell>
        <mxCell id="98YgMs9rK_HKfB4fXoP2-93" value="" style="endArrow=none;html=1;rounded=0;exitX=0.909;exitY=1.02;exitDx=0;exitDy=0;exitPerimeter=0;fontSize=18;" edge="1" parent="1" source="98YgMs9rK_HKfB4fXoP2-4" target="98YgMs9rK_HKfB4fXoP2-94">
          <mxGeometry relative="1" as="geometry">
            <mxPoint x="730" y="-90" as="sourcePoint" />
            <mxPoint x="940" y="60" as="targetPoint" />
          </mxGeometry>
        </mxCell>
        <mxCell id="98YgMs9rK_HKfB4fXoP2-94" value="Rebound" style="ellipse;whiteSpace=wrap;html=1;align=center;fontSize=18;" vertex="1" parent="1">
          <mxGeometry x="890" y="40" width="110" height="50" as="geometry" />
        </mxCell>
        <mxCell id="98YgMs9rK_HKfB4fXoP2-95" value="" style="shape=link;html=1;rounded=0;exitX=0.5;exitY=0;exitDx=0;exitDy=0;entryX=0.5;entryY=1;entryDx=0;entryDy=0;fontSize=18;" edge="1" parent="1" source="98YgMs9rK_HKfB4fXoP2-2" target="98YgMs9rK_HKfB4fXoP2-9">
          <mxGeometry relative="1" as="geometry">
            <mxPoint x="250" y="-380" as="sourcePoint" />
            <mxPoint x="410" y="-380" as="targetPoint" />
          </mxGeometry>
        </mxCell>
        <mxCell id="98YgMs9rK_HKfB4fXoP2-96" value="1" style="resizable=0;html=1;whiteSpace=wrap;align=right;verticalAlign=bottom;fontSize=18;" connectable="0" vertex="1" parent="98YgMs9rK_HKfB4fXoP2-95">
          <mxGeometry x="1" relative="1" as="geometry">
            <mxPoint x="20" y="20" as="offset" />
          </mxGeometry>
        </mxCell>
        <mxCell id="98YgMs9rK_HKfB4fXoP2-99" value="" style="endArrow=none;html=1;rounded=0;exitX=0.582;exitY=1.051;exitDx=0;exitDy=0;exitPerimeter=0;fontSize=18;" edge="1" parent="1" source="98YgMs9rK_HKfB4fXoP2-1" target="98YgMs9rK_HKfB4fXoP2-9">
          <mxGeometry relative="1" as="geometry">
            <mxPoint x="300" y="-430" as="sourcePoint" />
            <mxPoint x="460" y="-430" as="targetPoint" />
          </mxGeometry>
        </mxCell>
        <mxCell id="98YgMs9rK_HKfB4fXoP2-100" value="2" style="resizable=0;html=1;whiteSpace=wrap;align=right;verticalAlign=bottom;fontSize=18;" connectable="0" vertex="1" parent="98YgMs9rK_HKfB4fXoP2-99">
          <mxGeometry x="1" relative="1" as="geometry">
            <mxPoint x="20" as="offset" />
          </mxGeometry>
        </mxCell>
        <mxCell id="98YgMs9rK_HKfB4fXoP2-101" value="" style="shape=link;html=1;rounded=0;entryX=0;entryY=0.5;entryDx=0;entryDy=0;fontSize=18;" edge="1" parent="1" source="98YgMs9rK_HKfB4fXoP2-1" target="98YgMs9rK_HKfB4fXoP2-6">
          <mxGeometry relative="1" as="geometry">
            <mxPoint x="220" y="-595.67" as="sourcePoint" />
            <mxPoint x="350" y="-600" as="targetPoint" />
          </mxGeometry>
        </mxCell>
        <mxCell id="98YgMs9rK_HKfB4fXoP2-102" value="1" style="resizable=0;html=1;whiteSpace=wrap;align=right;verticalAlign=bottom;fontSize=18;" connectable="0" vertex="1" parent="98YgMs9rK_HKfB4fXoP2-101">
          <mxGeometry x="1" relative="1" as="geometry">
            <mxPoint y="-15" as="offset" />
          </mxGeometry>
        </mxCell>
        <mxCell id="98YgMs9rK_HKfB4fXoP2-103" value="" style="shape=link;html=1;rounded=0;exitX=1;exitY=0.5;exitDx=0;exitDy=0;entryX=0;entryY=0.5;entryDx=0;entryDy=0;fontSize=18;" edge="1" parent="1" source="98YgMs9rK_HKfB4fXoP2-6" target="98YgMs9rK_HKfB4fXoP2-5">
          <mxGeometry relative="1" as="geometry">
            <mxPoint x="470" y="-600.67" as="sourcePoint" />
            <mxPoint x="600" y="-600" as="targetPoint" />
          </mxGeometry>
        </mxCell>
        <mxCell id="98YgMs9rK_HKfB4fXoP2-104" value="N" style="resizable=0;html=1;whiteSpace=wrap;align=right;verticalAlign=bottom;fontSize=18;" connectable="0" vertex="1" parent="98YgMs9rK_HKfB4fXoP2-103">
          <mxGeometry x="1" relative="1" as="geometry">
            <mxPoint x="-115" y="-15" as="offset" />
          </mxGeometry>
        </mxCell>
        <mxCell id="98YgMs9rK_HKfB4fXoP2-107" value="" style="endArrow=none;html=1;rounded=0;exitX=0.5;exitY=1;exitDx=0;exitDy=0;entryX=0.5;entryY=0;entryDx=0;entryDy=0;fontSize=18;" edge="1" parent="1" source="98YgMs9rK_HKfB4fXoP2-5" target="98YgMs9rK_HKfB4fXoP2-10">
          <mxGeometry relative="1" as="geometry">
            <mxPoint x="530" y="-500" as="sourcePoint" />
            <mxPoint x="690" y="-500" as="targetPoint" />
          </mxGeometry>
        </mxCell>
        <mxCell id="98YgMs9rK_HKfB4fXoP2-108" value="1" style="resizable=0;html=1;whiteSpace=wrap;align=right;verticalAlign=bottom;fontSize=18;" connectable="0" vertex="1" parent="1">
          <mxGeometry x="380" y="-570.0000000000002" as="geometry">
            <mxPoint x="286" y="137" as="offset" />
          </mxGeometry>
        </mxCell>
        <mxCell id="98YgMs9rK_HKfB4fXoP2-109" value="" style="shape=link;html=1;rounded=0;exitX=0.5;exitY=0;exitDx=0;exitDy=0;entryX=0.5;entryY=1;entryDx=0;entryDy=0;fontSize=18;" edge="1" parent="1" source="98YgMs9rK_HKfB4fXoP2-4" target="98YgMs9rK_HKfB4fXoP2-10">
          <mxGeometry relative="1" as="geometry">
            <mxPoint x="530" y="-230" as="sourcePoint" />
            <mxPoint x="690" y="-230" as="targetPoint" />
          </mxGeometry>
        </mxCell>
        <mxCell id="98YgMs9rK_HKfB4fXoP2-110" value="N" style="resizable=0;html=1;whiteSpace=wrap;align=right;verticalAlign=bottom;fontSize=18;" connectable="0" vertex="1" parent="98YgMs9rK_HKfB4fXoP2-109">
          <mxGeometry x="1" relative="1" as="geometry">
            <mxPoint x="20" y="10" as="offset" />
          </mxGeometry>
        </mxCell>
        <mxCell id="98YgMs9rK_HKfB4fXoP2-111" value="" style="shape=link;html=1;rounded=0;exitX=1;exitY=0.5;exitDx=0;exitDy=0;entryX=0;entryY=0.5;entryDx=0;entryDy=0;fontSize=18;" edge="1" parent="1" source="98YgMs9rK_HKfB4fXoP2-7" target="98YgMs9rK_HKfB4fXoP2-4">
          <mxGeometry relative="1" as="geometry">
            <mxPoint x="300" y="-250" as="sourcePoint" />
            <mxPoint x="460" y="-250" as="targetPoint" />
          </mxGeometry>
        </mxCell>
        <mxCell id="98YgMs9rK_HKfB4fXoP2-112" value="N" style="resizable=0;html=1;whiteSpace=wrap;align=right;verticalAlign=bottom;fontSize=18;" connectable="0" vertex="1" parent="98YgMs9rK_HKfB4fXoP2-111">
          <mxGeometry x="1" relative="1" as="geometry">
            <mxPoint x="-100" y="-10" as="offset" />
          </mxGeometry>
        </mxCell>
        <mxCell id="98YgMs9rK_HKfB4fXoP2-113" value="" style="shape=link;html=1;rounded=0;exitX=1;exitY=0.5;exitDx=0;exitDy=0;entryX=0;entryY=0.5;entryDx=0;entryDy=0;fontSize=18;" edge="1" parent="1" source="98YgMs9rK_HKfB4fXoP2-2" target="98YgMs9rK_HKfB4fXoP2-7">
          <mxGeometry relative="1" as="geometry">
            <mxPoint x="230" y="-140.48000000000002" as="sourcePoint" />
            <mxPoint x="390" y="-140.48000000000002" as="targetPoint" />
          </mxGeometry>
        </mxCell>
        <mxCell id="98YgMs9rK_HKfB4fXoP2-114" value="1" style="resizable=0;html=1;whiteSpace=wrap;align=right;verticalAlign=bottom;fontSize=18;" connectable="0" vertex="1" parent="98YgMs9rK_HKfB4fXoP2-113">
          <mxGeometry x="1" relative="1" as="geometry">
            <mxPoint y="-10" as="offset" />
          </mxGeometry>
        </mxCell>
        <mxCell id="2L8KqGuZSr05R1WayIiN-2" value="" style="endArrow=none;html=1;rounded=0;exitX=1;exitY=1;exitDx=0;exitDy=0;fontSize=18;" edge="1" parent="1">
          <mxGeometry relative="1" as="geometry">
            <mxPoint x="930" y="-230" as="sourcePoint" />
            <mxPoint x="1050" y="-240" as="targetPoint" />
            <Array as="points" />
          </mxGeometry>
        </mxCell>
        <mxCell id="2L8KqGuZSr05R1WayIiN-3" value="GID" style="ellipse;whiteSpace=wrap;html=1;align=center;fontSize=18;" vertex="1" parent="1">
          <mxGeometry x="1050" y="-260" width="100" height="40" as="geometry" />
        </mxCell>
        <mxCell id="2L8KqGuZSr05R1WayIiN-4" value="PID" style="ellipse;whiteSpace=wrap;html=1;align=center;fontSize=18;" vertex="1" parent="1">
          <mxGeometry x="1050" y="-320" width="100" height="40" as="geometry" />
        </mxCell>
        <mxCell id="2L8KqGuZSr05R1WayIiN-5" value="" style="endArrow=none;html=1;rounded=0;exitX=0.779;exitY=0.075;exitDx=0;exitDy=0;entryX=0;entryY=0.5;entryDx=0;entryDy=0;exitPerimeter=0;fontSize=18;" edge="1" parent="1" source="98YgMs9rK_HKfB4fXoP2-28" target="2L8KqGuZSr05R1WayIiN-4">
          <mxGeometry relative="1" as="geometry">
            <mxPoint x="940" y="-220" as="sourcePoint" />
            <mxPoint x="1060" y="-230" as="targetPoint" />
            <Array as="points" />
          </mxGeometry>
        </mxCell>
        <mxCell id="2L8KqGuZSr05R1WayIiN-7" value="&lt;font style=&quot;font-size: 24px;&quot;&gt;&lt;b style=&quot;&quot;&gt;ER Model&lt;/b&gt;&lt;/font&gt;" style="text;html=1;align=center;verticalAlign=middle;resizable=0;points=[];autosize=1;strokeColor=none;fillColor=none;" vertex="1" parent="1">
          <mxGeometry x="-370" y="-890" width="130" height="40" as="geometry" />
        </mxCell>
        <mxCell id="y-7jdW4rgawXBHjt7Or6-1" value="FreeThrow" style="ellipse;whiteSpace=wrap;html=1;align=center;fontSize=18;" vertex="1" parent="1">
          <mxGeometry x="1110" y="-140" width="100" height="40" as="geometry" />
        </mxCell>
        <mxCell id="y-7jdW4rgawXBHjt7Or6-3" value="" style="endArrow=none;html=1;rounded=0;exitX=1;exitY=0.5;exitDx=0;exitDy=0;fontSize=18;entryX=0;entryY=0.5;entryDx=0;entryDy=0;" edge="1" parent="1" source="98YgMs9rK_HKfB4fXoP2-4" target="y-7jdW4rgawXBHjt7Or6-1">
          <mxGeometry relative="1" as="geometry">
            <mxPoint x="749" y="-129" as="sourcePoint" />
            <mxPoint x="1112" y="-174" as="targetPoint" />
          </mxGeometry>
        </mxCell>
        <mxCell id="z-HfWpxRQNMEwCcZTazb-1" value="Team_name" style="ellipse;whiteSpace=wrap;html=1;align=center;fontStyle=4;fontSize=18;" vertex="1" parent="1">
          <mxGeometry x="230" y="-750" width="130" height="50" as="geometry" />
        </mxCell>
        <mxCell id="z-HfWpxRQNMEwCcZTazb-2" value="" style="endArrow=none;html=1;rounded=0;entryX=0.75;entryY=0;entryDx=0;entryDy=0;exitX=0.5;exitY=1;exitDx=0;exitDy=0;fontSize=18;" edge="1" parent="1" source="z-HfWpxRQNMEwCcZTazb-1" target="98YgMs9rK_HKfB4fXoP2-1">
          <mxGeometry relative="1" as="geometry">
            <mxPoint x="145" y="-710" as="sourcePoint" />
            <mxPoint x="158" y="-618" as="targetPoint" />
          </mxGeometry>
        </mxCell>
      </root>
    </mxGraphModel>
  </diagram>
</mxfile>
